if (_typeface_js && _typeface_js.loadFace) _typeface_js.loadFace({"glyphs":{"S":{"x_min":62.703125,"x_max":717.65625,"ha":778,"o":"m 407 937 l 538 923 l 680 862 l 680 757 l 680 652 l 534 726 l 419 744 l 308 673 l 437 573 l 566 521 l 672 433 l 717 283 l 689 156 l 613 63 l 501 7 l 364 -11 l 220 8 l 62 81 l 62 190 l 62 300 l 214 213 l 360 181 l 486 268 l 433 344 l 330 384 l 197 442 l 109 530 l 77 660 l 102 783 l 172 870 l 277 921 l 407 937 "},"a":{"x_min":38.578125,"x_max":704.140625,"ha":789,"o":"m 704 673 l 704 538 l 704 404 l 704 269 l 704 135 l 704 0 l 510 0 l 510 27 l 369 -11 l 236 14 l 131 85 l 62 196 l 38 336 l 61 476 l 126 587 l 228 658 l 359 684 l 510 644 l 510 673 l 704 673 m 394 165 l 510 206 l 510 336 l 510 467 l 394 508 l 277 458 l 232 336 l 277 215 l 394 165 "},"T":{"x_min":22.1875,"x_max":788.0625,"ha":810,"o":"m 788 733 l 653 733 l 520 733 l 520 610 l 520 489 l 520 366 l 520 244 l 520 122 l 520 0 l 405 0 l 289 0 l 289 122 l 289 244 l 289 366 l 289 489 l 289 610 l 289 733 l 155 733 l 22 733 l 22 926 l 149 926 l 277 926 l 405 926 l 532 926 l 660 926 l 788 926 l 788 733 "},"N":{"x_min":81.03125,"x_max":997.375,"ha":1078,"o":"m 997 0 l 873 0 l 750 0 l 676 97 l 600 194 l 526 292 l 452 389 l 377 487 l 302 584 l 302 437 l 302 292 l 302 145 l 302 0 l 191 0 l 81 0 l 81 132 l 81 264 l 81 396 l 81 529 l 81 661 l 81 793 l 81 926 l 204 926 l 327 926 l 402 828 l 477 731 l 551 633 l 626 537 l 701 439 l 775 342 l 775 488 l 775 633 l 775 780 l 775 926 l 886 926 l 997 926 l 997 793 l 997 661 l 997 529 l 997 396 l 997 264 l 997 132 l 997 0 "},"K":{"x_min":85.84375,"x_max":961.6875,"ha":979,"o":"m 317 0 l 201 0 l 85 0 l 85 132 l 85 264 l 85 396 l 85 529 l 85 661 l 85 793 l 85 926 l 201 926 l 317 926 l 317 793 l 317 661 l 317 529 l 317 396 l 317 264 l 317 132 l 317 0 m 592 498 l 666 399 l 739 299 l 814 199 l 887 99 l 961 0 l 815 0 l 669 0 l 600 98 l 533 196 l 464 295 l 397 393 l 328 491 l 401 599 l 474 708 l 546 817 l 620 926 l 762 926 l 903 926 l 825 818 l 747 711 l 670 605 l 592 498 "},"d":{"x_min":38.578125,"x_max":704.140625,"ha":789,"o":"m 704 926 l 704 793 l 704 661 l 704 529 l 704 396 l 704 264 l 704 132 l 704 0 l 510 0 l 510 28 l 359 -11 l 228 14 l 126 85 l 61 196 l 38 336 l 62 476 l 131 587 l 236 658 l 369 684 l 510 646 l 510 786 l 510 926 l 704 926 m 394 165 l 510 206 l 510 336 l 510 467 l 394 508 l 277 458 l 232 336 l 277 215 l 394 165 "},"Y":{"x_min":10.609375,"x_max":941.4375,"ha":952,"o":"m 592 438 l 592 292 l 592 146 l 592 0 l 476 0 l 360 0 l 360 146 l 360 292 l 360 438 l 290 536 l 220 633 l 150 731 l 81 828 l 10 926 l 155 926 l 299 926 l 360 832 l 420 738 l 481 645 l 541 738 l 601 832 l 661 926 l 801 926 l 941 926 l 871 828 l 801 731 l 732 633 l 661 536 l 592 438 "},"E":{"x_min":85.84375,"x_max":723.4375,"ha":784,"o":"m 723 733 l 588 733 l 452 733 l 317 733 l 317 561 l 433 561 l 549 561 l 665 561 l 665 376 l 549 376 l 433 376 l 317 376 l 317 192 l 452 192 l 588 192 l 723 192 l 723 0 l 596 0 l 468 0 l 340 0 l 213 0 l 85 0 l 85 132 l 85 264 l 85 396 l 85 529 l 85 661 l 85 793 l 85 926 l 213 926 l 340 926 l 468 926 l 596 926 l 723 926 l 723 733 "},"j":{"x_min":-39.546875,"x_max":309.625,"ha":384,"o":"m 191 927 l 309 810 l 191 692 l 74 810 l 191 927 m 288 578 l 288 452 l 288 326 l 288 198 l 288 72 l 288 -54 l 267 -185 l 205 -280 l 103 -338 l -39 -358 l -39 -176 l 55 -142 l 95 -38 l 95 84 l 95 208 l 95 331 l 95 455 l 95 578 l 288 578 "},"y":{"x_min":18.328125,"x_max":703.1875,"ha":721,"o":"m 459 0 l 415 -126 l 373 -252 l 273 -252 l 174 -252 l 218 -126 l 261 0 l 213 135 l 163 269 l 115 404 l 66 538 l 18 673 l 120 673 l 223 673 l 269 534 l 315 394 l 360 255 l 406 394 l 451 534 l 496 673 l 599 673 l 703 673 l 653 538 l 605 404 l 556 269 l 508 135 l 459 0 "},"Z":{"x_min":46.296875,"x_max":811.21875,"ha":858,"o":"m 811 733 l 717 625 l 624 517 l 530 408 l 436 300 l 343 192 l 460 192 l 576 192 l 694 192 l 811 192 l 811 0 l 683 0 l 556 0 l 428 0 l 300 0 l 173 0 l 46 0 l 46 192 l 139 300 l 233 408 l 327 517 l 420 625 l 514 733 l 397 733 l 279 733 l 163 733 l 46 733 l 46 926 l 173 926 l 300 926 l 428 926 l 556 926 l 683 926 l 811 926 l 811 733 "},"u":{"x_min":76.203125,"x_max":708.96875,"ha":800,"o":"m 708 673 l 708 538 l 708 404 l 708 269 l 708 135 l 708 0 l 516 0 l 516 28 l 365 -11 l 238 10 l 147 72 l 93 168 l 76 293 l 76 419 l 76 546 l 76 673 l 270 673 l 270 552 l 270 432 l 270 311 l 306 214 l 404 173 l 516 212 l 516 327 l 516 442 l 516 557 l 516 673 l 708 673 "},"k":{"x_min":103.203125,"x_max":800.609375,"ha":815,"o":"m 376 248 l 297 167 l 297 0 l 103 0 l 103 132 l 103 264 l 103 396 l 103 529 l 103 661 l 103 793 l 103 926 l 297 926 l 297 795 l 297 666 l 297 536 l 297 407 l 381 495 l 465 584 l 549 673 l 668 673 l 787 673 l 695 578 l 604 485 l 513 390 l 584 293 l 656 194 l 728 97 l 800 0 l 679 0 l 558 0 l 466 124 l 376 248 "},"g":{"x_min":38.578125,"x_max":704.140625,"ha":789,"o":"m 704 673 l 704 550 l 704 427 l 704 304 l 704 181 l 704 58 l 679 -73 l 609 -172 l 504 -234 l 374 -255 l 258 -240 l 164 -197 l 164 -29 l 249 -79 l 350 -94 l 462 -52 l 510 58 l 510 76 l 359 35 l 228 57 l 126 121 l 61 223 l 38 360 l 62 496 l 131 599 l 236 662 l 369 684 l 510 646 l 510 673 l 704 673 m 394 196 l 510 233 l 510 359 l 510 487 l 394 523 l 277 478 l 232 360 l 277 242 l 394 196 "},"t":{"x_min":41.484375,"x_max":415.734375,"ha":452,"o":"m 280 431 l 280 308 l 320 204 l 415 170 l 415 -11 l 272 8 l 170 66 l 109 162 l 87 293 l 87 431 l 41 431 l 41 593 l 87 593 l 87 789 l 280 789 l 280 593 l 415 593 l 415 431 l 280 431 "},"e":{"x_min":38.578125,"x_max":750.453125,"ha":789,"o":"m 750 289 l 623 289 l 496 289 l 369 289 l 243 289 l 309 191 l 426 157 l 539 178 l 635 237 l 635 61 l 529 5 l 402 -11 l 254 14 l 138 85 l 64 196 l 38 336 l 65 476 l 140 587 l 254 658 l 394 684 l 508 668 l 606 619 l 682 539 l 733 428 l 750 289 m 239 419 l 389 419 l 540 419 l 480 515 l 394 546 l 296 513 l 239 419 "},"J":{"x_min":-3.859375,"x_max":587.4375,"ha":673,"o":"m 587 926 l 587 780 l 587 633 l 587 488 l 587 342 l 565 196 l 499 85 l 396 13 l 257 -11 l 113 9 l -3 70 l -3 195 l -3 321 l 100 245 l 202 218 l 309 251 l 355 365 l 355 505 l 355 645 l 355 786 l 355 926 l 471 926 l 587 926 "},"W":{"x_min":0,"x_max":1389,"ha":1389,"o":"m 1099 0 l 983 0 l 868 0 l 833 119 l 798 239 l 763 359 l 729 479 l 694 599 l 659 479 l 625 359 l 590 239 l 555 119 l 520 0 l 405 0 l 289 0 l 247 132 l 206 264 l 164 396 l 124 529 l 82 661 l 41 793 l 0 926 l 115 926 l 231 926 l 266 806 l 300 686 l 335 566 l 370 446 l 405 327 l 439 446 l 474 566 l 509 686 l 544 806 l 578 926 l 694 926 l 810 926 l 844 806 l 879 686 l 914 566 l 949 446 l 983 327 l 1018 446 l 1053 566 l 1088 686 l 1122 806 l 1157 926 l 1273 926 l 1389 926 l 1347 793 l 1306 661 l 1264 529 l 1224 396 l 1182 264 l 1141 132 l 1099 0 "},"v":{"x_min":18.328125,"x_max":703.1875,"ha":721,"o":"m 459 0 l 359 0 l 261 0 l 213 135 l 163 269 l 115 404 l 66 538 l 18 673 l 120 673 l 223 673 l 269 534 l 315 394 l 360 255 l 406 394 l 451 534 l 496 673 l 599 673 l 703 673 l 653 538 l 605 404 l 556 269 l 508 135 l 459 0 "},"s":{"x_min":63.65625,"x_max":615.40625,"ha":673,"o":"m 346 682 l 459 670 l 580 623 l 580 440 l 448 501 l 349 518 l 271 476 l 362 418 l 475 381 l 573 317 l 615 207 l 579 87 l 479 14 l 327 -10 l 201 4 l 63 60 l 64 250 l 200 182 l 334 157 l 421 209 l 315 275 l 195 317 l 109 381 l 77 479 l 109 593 l 200 660 l 346 682 "},"B":{"x_min":85.84375,"x_max":842.078125,"ha":884,"o":"m 85 926 l 211 926 l 336 926 l 462 926 l 631 894 l 743 806 l 784 676 l 756 571 l 681 492 l 797 402 l 842 266 l 817 159 l 748 74 l 641 19 l 502 0 l 363 0 l 224 0 l 85 0 l 85 132 l 85 264 l 85 396 l 85 529 l 85 661 l 85 793 l 85 926 m 317 748 l 317 564 l 453 564 l 552 656 l 453 748 l 317 748 m 317 395 l 317 286 l 317 177 l 493 177 l 610 286 l 493 395 l 317 395 "},"H":{"x_min":85.84375,"x_max":945.296875,"ha":1031,"o":"m 945 0 l 824 0 l 704 0 l 704 120 l 704 240 l 704 360 l 578 360 l 452 360 l 327 360 l 327 240 l 327 120 l 327 0 l 206 0 l 85 0 l 85 132 l 85 264 l 85 396 l 85 529 l 85 661 l 85 793 l 85 926 l 206 926 l 327 926 l 327 810 l 327 693 l 327 577 l 452 577 l 578 577 l 704 577 l 704 693 l 704 810 l 704 926 l 824 926 l 945 926 l 945 793 l 945 661 l 945 529 l 945 396 l 945 264 l 945 132 l 945 0 "},"c":{"x_min":40.515625,"x_max":590.328125,"ha":637,"o":"m 381 684 l 496 667 l 590 611 l 590 420 l 505 479 l 404 499 l 285 454 l 234 336 l 285 218 l 404 173 l 505 193 l 590 253 l 590 61 l 496 5 l 381 -11 l 245 14 l 137 85 l 66 196 l 40 336 l 66 476 l 137 587 l 245 658 l 381 684 "},"q":{"x_min":38.578125,"x_max":704.140625,"ha":789,"o":"m 704 673 l 704 541 l 704 408 l 704 276 l 704 143 l 704 11 l 704 -120 l 704 -252 l 510 -252 l 510 -112 l 510 27 l 369 -11 l 236 14 l 131 85 l 62 196 l 38 336 l 61 476 l 126 587 l 228 658 l 359 684 l 510 644 l 510 673 l 704 673 m 394 165 l 510 206 l 510 336 l 510 467 l 394 508 l 277 458 l 232 336 l 277 215 l 394 165 "},"b":{"x_min":84.890625,"x_max":750.453125,"ha":789,"o":"m 419 684 l 552 658 l 656 587 l 726 476 l 750 336 l 727 196 l 661 85 l 560 14 l 429 -11 l 278 28 l 278 0 l 84 0 l 84 132 l 84 264 l 84 396 l 84 529 l 84 661 l 84 793 l 84 926 l 278 926 l 278 786 l 278 646 l 419 684 m 394 165 l 511 215 l 557 336 l 511 458 l 394 508 l 278 467 l 278 336 l 278 206 l 394 165 "},"D":{"x_min":85.84375,"x_max":970.375,"ha":994,"o":"m 85 926 l 215 926 l 345 926 l 474 926 l 606 910 l 724 866 l 824 795 l 902 703 l 953 591 l 970 463 l 953 334 l 902 222 l 824 130 l 724 59 l 606 15 l 474 0 l 345 0 l 215 0 l 85 0 l 85 132 l 85 264 l 85 396 l 85 529 l 85 661 l 85 793 l 85 926 m 317 716 l 317 589 l 317 462 l 317 335 l 317 208 l 474 208 l 599 240 l 686 327 l 720 463 l 686 597 l 599 684 l 474 716 l 317 716 "},"I":{"x_min":100.3125,"x_max":331.8125,"ha":431,"o":"m 331 0 l 216 0 l 100 0 l 100 132 l 100 264 l 100 396 l 100 529 l 100 661 l 100 793 l 100 926 l 216 926 l 331 926 l 331 793 l 331 661 l 331 529 l 331 396 l 331 264 l 331 132 l 331 0 "},"G":{"x_min":22.1875,"x_max":879.703125,"ha":937,"o":"m 544 937 l 650 929 l 769 901 l 879 847 l 879 730 l 879 613 l 783 670 l 672 708 l 558 720 l 408 688 l 308 599 l 272 461 l 308 320 l 406 223 l 550 189 l 686 223 l 685 356 l 520 356 l 520 525 l 640 525 l 760 525 l 879 525 l 879 381 l 879 239 l 879 95 l 768 36 l 648 0 l 527 -11 l 391 4 l 270 51 l 167 123 l 89 218 l 39 333 l 22 463 l 37 586 l 84 699 l 160 795 l 262 871 l 391 920 l 544 937 "},"z":{"x_min":55.953125,"x_max":617.328125,"ha":673,"o":"m 617 496 l 513 390 l 408 283 l 304 177 l 461 177 l 617 177 l 617 0 l 476 0 l 336 0 l 195 0 l 55 0 l 55 177 l 160 283 l 265 390 l 369 496 l 212 496 l 55 496 l 55 673 l 195 673 l 336 673 l 476 673 l 617 673 l 617 496 "},"U":{"x_min":76.203125,"x_max":898.03125,"ha":973,"o":"m 898 926 l 898 792 l 898 659 l 898 527 l 898 394 l 876 257 l 817 144 l 728 59 l 615 6 l 487 -11 l 356 6 l 245 59 l 155 143 l 97 256 l 76 394 l 76 527 l 76 659 l 76 792 l 76 926 l 195 926 l 316 926 l 316 792 l 316 659 l 316 527 l 316 394 l 365 250 l 487 200 l 607 250 l 656 394 l 656 527 l 656 659 l 656 792 l 656 926 l 777 926 l 898 926 "},"w":{"x_min":18.328125,"x_max":1049.46875,"ha":1067,"o":"m 837 0 l 670 0 l 625 140 l 579 281 l 534 422 l 488 281 l 442 140 l 396 0 l 229 0 l 187 135 l 144 269 l 103 404 l 60 538 l 18 673 l 118 673 l 219 673 l 255 544 l 292 416 l 327 288 l 370 416 l 413 544 l 456 673 l 611 673 l 653 544 l 696 416 l 738 288 l 774 416 l 811 544 l 846 673 l 948 673 l 1049 673 l 1007 538 l 964 404 l 922 269 l 879 135 l 837 0 "},"F":{"x_min":85.84375,"x_max":723.4375,"ha":731,"o":"m 723 733 l 588 733 l 452 733 l 317 733 l 317 544 l 433 544 l 549 544 l 665 544 l 665 360 l 549 360 l 433 360 l 317 360 l 317 240 l 317 120 l 317 0 l 201 0 l 85 0 l 85 132 l 85 264 l 85 396 l 85 529 l 85 661 l 85 793 l 85 926 l 213 926 l 340 926 l 468 926 l 596 926 l 723 926 l 723 733 "},"r":{"x_min":87.78125,"x_max":577.78125,"ha":579,"o":"m 425 684 l 577 627 l 577 527 l 577 428 l 397 491 l 280 455 l 280 303 l 280 151 l 280 0 l 87 0 l 87 135 l 87 269 l 87 404 l 87 538 l 87 673 l 280 673 l 280 640 l 425 684 "},"x":{"x_min":18.328125,"x_max":750.453125,"ha":768,"o":"m 383 208 l 326 104 l 269 0 l 143 0 l 18 0 l 98 114 l 178 228 l 258 343 l 181 453 l 104 563 l 27 673 l 152 673 l 277 673 l 330 574 l 383 477 l 436 574 l 490 673 l 615 673 l 740 673 l 663 563 l 586 453 l 509 343 l 589 228 l 670 114 l 750 0 l 624 0 l 498 0 l 440 104 l 383 208 "},"V":{"x_min":26.046875,"x_max":994.484375,"ha":1021,"o":"m 635 0 l 510 0 l 384 0 l 339 115 l 295 231 l 249 347 l 205 463 l 160 578 l 115 694 l 70 810 l 26 926 l 153 926 l 281 926 l 327 800 l 373 675 l 418 548 l 464 423 l 510 298 l 555 423 l 601 548 l 647 675 l 693 800 l 738 926 l 866 926 l 994 926 l 949 810 l 904 694 l 859 578 l 815 463 l 769 347 l 725 231 l 680 115 l 635 0 "},"Q":{"x_min":22.1875,"x_max":1019.5625,"ha":1042,"o":"m 1019 463 l 1005 345 l 963 241 l 899 150 l 1019 0 l 900 0 l 783 0 l 751 40 l 641 1 l 520 -11 l 387 4 l 269 51 l 167 123 l 89 218 l 39 333 l 22 463 l 39 592 l 89 707 l 167 802 l 269 874 l 387 921 l 520 937 l 653 921 l 772 874 l 873 802 l 952 707 l 1002 592 l 1019 463 m 520 205 l 608 220 l 509 347 l 626 347 l 744 347 l 768 463 l 735 597 l 646 687 l 520 720 l 395 687 l 306 597 l 272 463 l 306 328 l 395 238 l 520 205 "},"h":{"x_min":87.78125,"x_max":720.546875,"ha":789,"o":"m 431 684 l 558 662 l 649 600 l 703 504 l 720 380 l 720 253 l 720 126 l 720 0 l 526 0 l 526 120 l 526 241 l 526 361 l 490 459 l 391 499 l 280 462 l 280 346 l 280 230 l 280 115 l 280 0 l 87 0 l 87 132 l 87 264 l 87 396 l 87 529 l 87 661 l 87 793 l 87 926 l 280 926 l 280 785 l 280 644 l 431 684 "},"M":{"x_min":86.8125,"x_max":1123.734375,"ha":1211,"o":"m 1123 0 l 1007 0 l 892 0 l 892 118 l 892 237 l 892 354 l 892 473 l 892 592 l 816 479 l 738 365 l 662 252 l 542 252 l 463 365 l 386 477 l 308 590 l 308 472 l 308 354 l 308 236 l 308 117 l 308 0 l 197 0 l 86 0 l 86 132 l 86 264 l 86 396 l 86 529 l 86 661 l 86 793 l 86 926 l 216 926 l 345 926 l 432 802 l 518 680 l 605 556 l 690 680 l 775 802 l 860 926 l 991 926 l 1123 926 l 1123 793 l 1123 661 l 1123 529 l 1123 396 l 1123 264 l 1123 132 l 1123 0 "},"C":{"x_min":22.1875,"x_max":832.4375,"ha":879,"o":"m 501 937 l 635 926 l 742 894 l 832 847 l 832 722 l 832 597 l 741 665 l 642 706 l 535 720 l 402 688 l 308 599 l 272 463 l 308 327 l 402 237 l 535 205 l 642 219 l 741 260 l 832 328 l 832 203 l 832 78 l 742 28 l 635 0 l 501 -11 l 374 4 l 259 51 l 162 123 l 87 218 l 39 333 l 22 463 l 39 592 l 87 707 l 162 802 l 259 874 l 374 921 l 501 937 "},"f":{"x_min":41.484375,"x_max":415.734375,"ha":452,"o":"m 415 937 l 415 755 l 320 721 l 280 617 l 280 593 l 415 593 l 415 431 l 280 431 l 280 287 l 280 143 l 280 0 l 87 0 l 87 143 l 87 287 l 87 431 l 41 431 l 41 593 l 87 593 l 87 632 l 109 763 l 170 859 l 272 917 l 415 937 "},"L":{"x_min":90.671875,"x_max":728.265625,"ha":742,"o":"m 322 217 l 457 217 l 593 217 l 728 217 l 728 108 l 728 0 l 600 0 l 473 0 l 345 0 l 218 0 l 90 0 l 90 132 l 90 264 l 90 396 l 90 529 l 90 661 l 90 793 l 90 926 l 206 926 l 322 926 l 322 784 l 322 642 l 322 500 l 322 358 l 322 217 "},"i":{"x_min":74.265625,"x_max":309.625,"ha":384,"o":"m 191 927 l 309 810 l 191 692 l 74 810 l 191 927 m 288 0 l 95 0 l 95 144 l 95 289 l 95 434 l 95 578 l 288 578 l 288 434 l 288 289 l 288 144 l 288 0 "},"A":{"x_min":26.046875,"x_max":994.484375,"ha":1021,"o":"m 332 205 l 295 102 l 257 0 l 141 0 l 26 0 l 70 115 l 115 231 l 160 347 l 205 463 l 249 578 l 295 694 l 339 810 l 384 926 l 510 926 l 635 926 l 680 810 l 725 694 l 769 578 l 815 463 l 859 347 l 904 231 l 949 115 l 994 0 l 878 0 l 762 0 l 725 102 l 687 205 l 569 205 l 451 205 l 332 205 m 510 726 l 473 617 l 436 507 l 400 398 l 510 398 l 620 398 l 583 507 l 546 617 l 510 726 "},"n":{"x_min":87.78125,"x_max":720.546875,"ha":789,"o":"m 431 684 l 558 662 l 649 600 l 703 504 l 720 380 l 720 253 l 720 126 l 720 0 l 526 0 l 526 120 l 526 241 l 526 361 l 490 459 l 391 499 l 280 462 l 280 346 l 280 230 l 280 115 l 280 0 l 87 0 l 87 135 l 87 269 l 87 404 l 87 538 l 87 673 l 280 673 l 280 644 l 431 684 "},"O":{"x_min":22.1875,"x_max":1019.5625,"ha":1042,"o":"m 520 937 l 653 921 l 772 874 l 872 802 l 951 707 l 1001 592 l 1019 463 l 1001 333 l 951 218 l 872 123 l 772 51 l 653 4 l 520 -11 l 388 4 l 269 51 l 168 123 l 90 218 l 40 333 l 22 463 l 40 592 l 90 707 l 168 802 l 269 874 l 388 921 l 520 937 m 520 720 l 395 687 l 306 597 l 272 463 l 306 328 l 395 238 l 520 205 l 646 238 l 735 328 l 768 463 l 735 597 l 646 687 l 520 720 "}," ":{"x_min":0,"x_max":0,"ha":342},"X":{"x_min":10.609375,"x_max":988.703125,"ha":999,"o":"m 642 486 l 711 388 l 781 291 l 849 194 l 919 97 l 988 0 l 844 0 l 699 0 l 631 106 l 564 211 l 496 317 l 428 211 l 358 106 l 290 0 l 150 0 l 10 0 l 80 96 l 149 191 l 218 288 l 288 383 l 357 480 l 277 591 l 198 703 l 118 814 l 39 926 l 184 926 l 328 926 l 415 787 l 503 649 l 562 741 l 621 833 l 680 926 l 819 926 l 959 926 l 880 816 l 800 706 l 721 596 l 642 486 "},"P":{"x_min":85.84375,"x_max":808.328125,"ha":836,"o":"m 85 926 l 214 926 l 343 926 l 471 926 l 602 900 l 709 831 l 782 728 l 808 602 l 782 477 l 709 374 l 602 304 l 471 279 l 317 279 l 317 139 l 317 0 l 201 0 l 85 0 l 85 132 l 85 264 l 85 396 l 85 529 l 85 661 l 85 793 l 85 926 m 317 733 l 317 602 l 317 472 l 442 472 l 535 510 l 572 602 l 535 695 l 442 733 l 317 733 "},"m":{"x_min":87.78125,"x_max":1183.546875,"ha":1252,"o":"m 894 684 l 1021 662 l 1112 600 l 1166 504 l 1183 380 l 1183 253 l 1183 126 l 1183 0 l 989 0 l 989 120 l 989 241 l 989 361 l 953 459 l 854 499 l 727 449 l 732 380 l 732 253 l 732 126 l 732 0 l 538 0 l 538 120 l 538 241 l 538 361 l 501 459 l 404 499 l 280 453 l 280 301 l 280 151 l 280 0 l 87 0 l 87 135 l 87 269 l 87 404 l 87 538 l 87 673 l 280 673 l 280 637 l 443 684 l 572 661 l 663 597 l 768 661 l 894 684 "},"l":{"x_min":92.59375,"x_max":421.515625,"ha":452,"o":"m 286 926 l 286 802 l 286 679 l 286 555 l 286 432 l 286 308 l 326 204 l 421 170 l 421 -11 l 278 8 l 175 66 l 113 162 l 92 293 l 92 419 l 92 545 l 92 673 l 92 799 l 92 926 l 286 926 "},"p":{"x_min":84.890625,"x_max":750.453125,"ha":789,"o":"m 419 684 l 552 658 l 656 587 l 726 476 l 750 336 l 727 196 l 661 85 l 560 14 l 429 -11 l 278 28 l 278 -111 l 278 -252 l 84 -252 l 84 -120 l 84 11 l 84 143 l 84 276 l 84 408 l 84 541 l 84 673 l 278 673 l 278 646 l 419 684 m 394 165 l 511 215 l 557 336 l 511 458 l 394 508 l 278 467 l 278 336 l 278 206 l 394 165 "},"R":{"x_min":88.734375,"x_max":868.125,"ha":894,"o":"m 88 926 l 217 926 l 346 926 l 474 926 l 605 900 l 712 831 l 785 728 l 812 602 l 769 448 l 657 338 l 728 225 l 797 112 l 868 0 l 735 0 l 602 0 l 544 93 l 488 186 l 430 279 l 320 279 l 320 139 l 320 0 l 204 0 l 88 0 l 88 132 l 88 264 l 88 396 l 88 529 l 88 661 l 88 793 l 88 926 m 320 733 l 320 602 l 320 472 l 445 472 l 538 510 l 575 602 l 538 695 l 445 733 l 320 733 "},"o":{"x_min":38.578125,"x_max":750.453125,"ha":789,"o":"m 394 684 l 534 658 l 647 587 l 723 476 l 750 336 l 723 196 l 647 85 l 534 14 l 394 -11 l 254 14 l 140 85 l 65 196 l 38 336 l 65 476 l 140 587 l 254 658 l 394 684 m 394 508 l 279 458 l 232 336 l 279 215 l 394 165 l 510 215 l 557 336 l 510 458 l 394 508 "}}}
